<?xml version="1.0" standalone="no"?>
<!DOCTYPE svg PUBLIC "-//W3C//DTD SVG 20010904//EN"
 "http://www.w3.org/TR/2001/REC-SVG-20010904/DTD/svg10.dtd">
<svg version="1.0" xmlns="http://www.w3.org/2000/svg"
 width="1024.000000pt" height="1024.000000pt" viewBox="0 0 1024.000000 1024.000000"
 preserveAspectRatio="xMidYMid meet">
<metadata>
Created by potrace 1.11, written by Peter Selinger 2001-2013
</metadata>
<g transform="translate(0.000000,1024.000000) scale(0.100000,-0.100000)"
fill="#000000" stroke="none">
<path d="M2175 10229 c-480 -48 -920 -229 -1295 -533 -273 -222 -516 -536
-659 -853 -117 -260 -183 -507 -211 -792 -14 -142 -14 -5720 0 -5862 48 -492
226 -929 534 -1309 222 -273 536 -516 853 -659 260 -117 507 -183 792 -211
142 -14 5720 -14 5862 0 429 42 805 178 1154 418 585 403 955 1038 1025 1761
14 142 14 5720 0 5862 -42 429 -178 805 -418 1154 -403 585 -1038 955 -1761
1025 -125 12 -5755 11 -5876 -1z m2498 -960 c524 -212 997 -463 1486 -787 167
-111 453 -320 591 -431 l64 -52 118 118 118 118 155 -155 155 -155 125 125
125 125 282 -283 283 -282 -125 -125 -125 -125 155 -155 155 -155 -118 -118
-118 -118 52 -64 c412 -511 807 -1153 1082 -1762 64 -141 197 -459 197 -471 0
-11 -702 -329 -709 -321 -5 5 -55 92 -111 194 -317 570 -678 1091 -1108 1598
l-105 124 -98 -98 -99 -99 -592 593 -593 592 99 99 98 98 -124 105 c-507 430
-1028 791 -1598 1108 -102 56 -189 106 -194 111 -8 7 310 709 321 709 2 0 72
-28 156 -61z m1277 -3324 l275 -275 -2238 -2238 -2237 -2237 -277 278 -278
277 2235 2235 c1229 1229 2237 2235 2240 2235 3 0 129 -124 280 -275z"/>
</g>
</svg>
